<?xml version="1.0" encoding="utf-8"?>
<!-- Generator: Adobe Illustrator 21.0.0, SVG Export Plug-In . SVG Version: 6.00 Build 0)  -->
<svg version="1.1" id="Layer_1" xmlns="http://www.w3.org/2000/svg" xmlns:xlink="http://www.w3.org/1999/xlink" x="0px" y="0px"
	 viewBox="200 200 1200 1113.1" style="enable-background:new 0 0 1644.6 1113.1;" xml:space="preserve">
<style type="text/css">
	.st0{fill:#0066B2;}
	.st1{fill:#36495D;}
	.st2{fill:#006FCF;}
	.st3{fill:#FFFFFF;}
	.st4{fill:#F9A533;}
	.st5{fill:#F16522;}
	.st6{fill:#E41B24;}
	.st7{fill:#F89E1C;}
	.st8{filter:url(#Adobe_OpacityMaskFilter);}
	.st9{mask:url(#bluebox-55x54-b_2_);fill:#F7F7F7;}
	.st10{filter:url(#Adobe_OpacityMaskFilter_1_);}
	.st11{mask:url(#bluebox-55x54-d_2_);fill:#006FCF;}
</style>
<path id="XMLID_4_" class="st0" d="M584.2,694H321.4c-16.5,0-29.9-13.4-29.9-29.9V496.8c0-16.5,13.4-29.9,29.9-29.9h262.8
	c16.5,0,29.9,13.4,29.9,29.9v167.3C614.1,680.6,600.7,694,584.2,694z"/>
<path id="XMLID_5_" class="st1" d="M966.5,694H703.8c-16.5,0-29.9-13.4-29.9-29.9V496.8c0-16.5,13.4-29.9,29.9-29.9h262.8
	c16.5,0,29.9,13.4,29.9,29.9v167.3C996.4,680.6,983,694,966.5,694z"/>
<path id="XMLID_6_" class="st2" d="M1348.8,694h-262.8c-16.5,0-29.9-13.4-29.9-29.9V496.8c0-16.5,13.4-29.9,29.9-29.9h262.8
	c16.5,0,29.9,13.4,29.9,29.9v167.3C1378.7,680.6,1365.3,694,1348.8,694z"/>
<g id="XMLID_7_">
	<g id="XMLID_9_">
		<polygon id="XMLID_19_" class="st3" points="439.1,616 422.3,616 432.8,551.5 449.6,551.5 		"/>
		<path id="XMLID_18_" class="st3" d="M408.2,551.5l-16,44.4l-1.9-9.6l0,0l-5.7-29c0,0-0.7-5.8-8-5.8h-26.5l-0.3,1.1
			c0,0,8.1,1.7,17.6,7.4L382,616h17.5l26.7-64.5H408.2z"/>
		<path id="XMLID_11_" class="st3" d="M540.3,616h15.4l-13.4-64.5h-13.5c-6.2,0-7.8,4.8-7.8,4.8L496,616h17.5l3.5-9.6h21.4
			L540.3,616z M521.8,593.2l8.8-24.1l5,24.1H521.8z"/>
		<path id="XMLID_10_" class="st3" d="M497.3,567l2.4-13.9c0,0-7.4-2.8-15.1-2.8c-8.3,0-28.1,3.6-28.1,21.4
			c0,16.7,23.2,16.9,23.2,25.6c0,8.8-20.8,7.2-27.7,1.7l-2.5,14.5c0,0,7.5,3.6,19,3.6c11.5,0,28.8-5.9,28.8-22.1
			c0-16.8-23.4-18.3-23.4-25.6C473.8,562.1,490.1,563.1,497.3,567z"/>
	</g>
	<path id="XMLID_8_" class="st4" d="M390.3,586.3l-5.7-29c0,0-0.7-5.8-8-5.8h-26.5l-0.3,1.1c0,0,12.7,2.6,24.9,12.5
		C386.5,574.5,390.3,586.3,390.3,586.3z"/>
</g>
<g id="XMLID_3_">
	<rect id="XMLID_41_" x="808" y="531.8" class="st5" width="54.2" height="97.4"/>
	<path id="XMLID_40_" class="st6" d="M811.5,580.4c0-19.8,9.3-37.3,23.7-48.7c-10.5-8.3-23.8-13.2-38.3-13.2
		c-34.2,0-61.9,27.7-61.9,61.9c0,34.2,27.7,61.9,61.9,61.9c14.4,0,27.7-4.9,38.3-13.2C820.7,617.8,811.5,600.2,811.5,580.4"/>
	<path id="XMLID_20_" class="st7" d="M935.3,580.4c0,34.2-27.7,61.9-61.9,61.9c-14.4,0-27.7-4.9-38.3-13.2
		c14.4-11.3,23.6-28.9,23.6-48.7s-9.2-37.3-23.6-48.7c10.5-8.3,23.8-13.2,38.3-13.2C907.6,518.5,935.3,546.2,935.3,580.4
		 M929.4,618.8v-2h0.8v-0.4h-2v0.4h0.8v2H929.4z M933.4,618.8v-2.4h-0.6l-0.7,1.7l-0.7-1.7h-0.6v2.4h0.4V617l0.7,1.6h0.5l0.7-1.6
		v1.8H933.4z"/>
</g>
<g id="XMLID_63_">
	<g id="XMLID_64_" transform="translate(0 16.675)">
		<defs>
			<filter id="Adobe_OpacityMaskFilter" filterUnits="userSpaceOnUse" x="1056.2" y="504" width="322.3" height="132">
				<feColorMatrix  type="matrix" values="1 0 0 0 0  0 1 0 0 0  0 0 1 0 0  0 0 0 1 0"/>
			</filter>
		</defs>
		<mask maskUnits="userSpaceOnUse" x="1056.2" y="504" width="322.3" height="132" id="bluebox-55x54-b_2_">
			<g id="XMLID_108_" class="st8">
				<polygon id="bluebox-55x54-a_2_" class="st3" points="1056.2,504 1056.2,636 1378.5,636 1378.5,504 				"/>
			</g>
		</mask>
		<path id="XMLID_90_" class="st9" d="M1339,560.3h24.2V504h-25.8v9l-5.7-9h-22.5v11.4l-5-11.4h-37.2c-1.8,0-3.5,0.1-5.2,0.4
			c-1.4,0.2-2.8,0.5-4.2,1c-1.1,0.3-2.1,0.7-3.1,1.2c-1.2,0.5-2.3,1.2-3.3,1.9v-1.9V504h-121.4l-3.3,9.8l-3.4-9.8h-28.3v11.5
			l-5.1-11.5h-23.1l-10.3,24.1v27.2v5h16.3l3-8.1h5.8l3.1,8.1H1210v-8.2l6.3,8.2h34.7v-1.8v-2.3c0.9,0.6,1.8,1.1,2.8,1.5
			c0.9,0.4,1.9,0.8,2.9,1.1c1.2,0.4,2.4,0.7,3.7,0.9c2,0.4,4,0.5,5.9,0.5h20.8l3-8.1h5.8l3.1,8.1h34.8V552L1339,560.3z
			 M1378.5,632.6v-52.8h-2.8h-197.1l-5.1,7.2l-5-7.2h-57.5V636h57.3l5-7.3l5.2,7.3h35.9v-12.1h-0.4c4.5,0,8.5-0.8,12.1-2.1V636h25
			v-8.2l6.3,8.2h108.5c3.1,0,6-0.5,8.7-1.5C1375.8,634,1377.2,633.3,1378.5,632.6z"/>
		<g id="XMLID_77_" transform="translate(10.3 14.223)">
			<defs>
				<filter id="Adobe_OpacityMaskFilter_1_" filterUnits="userSpaceOnUse" x="1109.5" y="574.7" width="258.9" height="38">
					<feColorMatrix  type="matrix" values="1 0 0 0 0  0 1 0 0 0  0 0 1 0 0  0 0 0 1 0"/>
				</filter>
			</defs>
			<mask maskUnits="userSpaceOnUse" x="1109.5" y="574.7" width="258.9" height="38" id="bluebox-55x54-d_2_">
				<g id="XMLID_92_" class="st10">
					<polygon id="bluebox-55x54-c_2_" class="st3" points="1368.4,612.6 1368.4,574.7 1109.5,574.7 1109.5,612.6 					"/>
				</g>
			</mask>
			<path id="XMLID_78_" class="st11" d="M1355.6,605h-19.5v7.6h19.2c8.2,0,13.1-5,13.1-12.1c0-6.8-4.4-10.7-11.8-10.7h-8.8
				c-2.2,0-3.7-1.4-3.7-3.6c0-2.3,1.5-3.8,3.7-3.8h16.5l3.4-7.7h-19.6c-8.2,0-13.1,5-13.1,11.8c0,7,4.6,11,11.8,11h8.7
				c2.2,0,3.7,1.4,3.7,3.7C1359.4,603.5,1357.8,605,1355.6,605z M1319.5,605H1300v7.6h19.2c8.2,0,13.1-5,13.1-12.1
				c0-6.8-4.4-10.7-11.8-10.7h-8.8c-2.2,0-3.7-1.4-3.7-3.6c0-2.3,1.5-3.8,3.7-3.8h16.5l3.4-7.7H1312c-8.2,0-13.1,5-13.1,11.8
				c0,7,4.6,11,11.8,11h8.7c2.2,0,3.7,1.4,3.7,3.7C1323.2,603.5,1321.7,605,1319.5,605z M1294.5,582.4v-7.7h-30.4v38h30.4V605h-21.3
				v-7.6h20.8v-7.6h-20.8v-7.4H1294.5z M1243.6,582.4c3.3,0,5,2.1,5,4.7c0,2.6-1.7,4.7-5,4.7h-10.7v-9.4H1243.6z M1232.9,599h4.3
				l11.3,13.7h11.3l-12.6-14c6.5-1.2,10.3-5.9,10.3-11.9c0-7.1-5-12-13.1-12h-20.6v38h9.1V599z M1209.7,587.4c0,2.6-1.6,4.7-4.8,4.7
				H1194v-9.3h10.9C1208.1,582.7,1209.7,584.8,1209.7,587.4z M1184.9,574.7v38h9.1v-12.5h11.4c8.3,0,13.5-5.4,13.5-12.7
				c0-7.5-5-12.7-13.1-12.7H1184.9z M1171.5,612.6h11.4l-15.2-19.1l15.1-18.8h-11.1l-9.3,12l-9.3-12h-11.4l15.2,19l-15.1,19h11.1
				l9.3-12.2L1171.5,612.6z M1139.8,582.4v-7.7h-30.4v38h30.4V605h-21.3v-7.6h20.8v-7.6h-20.8v-7.4H1139.8z"/>
		</g>
		<path id="XMLID_65_" class="st2" d="M1326.4,528.5l-0.1-3.1l1.9,3.1l14.5,22.7h10.6v-38h-8.9v22l0.1,2.8l-1.7-2.8l-14.2-22h-11.2
			v38h8.9V528.5z M1290,527.4l2.8-7.1l2.8,7.1l3.4,8.4h-12.2L1290,527.4z M1305.1,551.2h10.2l-16.2-38h-12l-16.3,38h9.7l3.2-8.1
			h18.1L1305.1,551.2z M1265.4,551.2h0.5l3.7-8.1h-2.8c-6.2,0-9.9-3.9-9.9-10.6v-0.5c0-6,3.3-10.5,9.8-10.5h9.9v-8.2H1266
			c-11.7,0-18.1,7.9-18.1,18.7v0.7C1247.8,543.8,1254.4,551.1,1265.4,551.2z M1233,551.2h9.1v-16.7v-21.3h-9.1v21V551.2z
			 M1213.8,521c3.3,0,5,2.1,5,4.7s-1.7,4.7-5,4.7h-10.7V521H1213.8z M1203.1,537.5h4.3l11.3,13.7h11.3l-12.6-14
			c6.5-1.2,10.3-5.9,10.3-11.9c0-7.1-5-12-13.1-12H1194v38h9.1V537.5z M1187.4,520.9v-7.7H1157v38h30.4v-7.8h-21.3v-7.5h20.8v-7.6
			h-20.8v-7.4H1187.4z M1111.8,525.3l-0.2-10.3l10.5,36.2h8.2l10.5-36l-0.2,10v26h8.8v-38h-16.1l-7.2,26.9l-7.3-26.9h-16v38h8.8
			V525.3z M1075.5,527.4l2.8-7.1l2.8,7.1l3.4,8.4h-12.2L1075.5,527.4z M1090.6,551.2h10.3l-16.2-38h-12l-16.3,38h9.7l3.2-8.1h18.1
			L1090.6,551.2z"/>
	</g>
</g>
</svg>
